<svg xmlns="http://www.w3.org/2000/svg" xmlns:xlink="http://www.w3.org/1999/xlink" width="8500" height="8500" viewBox="0 0 8500 8500"><defs><linearGradient id="a" x2="1.466" y2="1.412" gradientUnits="objectBoundingBox"><stop offset="0" stop-color="#fff"/><stop offset="0" stop-color="#f0f0f0" stop-opacity="0.969"/><stop offset="1" stop-color="gray" stop-opacity="0.788"/></linearGradient><linearGradient id="b" x1="0.906" y1="0.066" x2="0.016" y2="1" gradientUnits="objectBoundingBox"><stop offset="0" stop-color="#8091ff"/><stop offset="1" stop-color="#6a3368"/></linearGradient><filter id="c" x="1593.5" y="1207.12" width="5398" height="5397.104" filterUnits="userSpaceOnUse"><feOffset dx="-28" dy="44" input="SourceAlpha"/><feGaussianBlur stdDeviation="26.5" result="d"/><feFlood flood-opacity="0.161"/><feComposite operator="in" in2="d"/><feComposite in="SourceGraphic"/></filter><clipPath id="f"><rect width="8500" height="8500"/></clipPath></defs><g id="e" clip-path="url(#f)"><rect width="8500" height="8500" fill="url(#a)"/><g transform="matrix(1, 0, 0, 1, 0, 0)" filter="url(#c)"><rect width="5239" height="5238.104" rx="980" transform="translate(1701 1242.62)" fill="url(#b)"/></g><g transform="translate(-3554.428 -1850.829)"><g transform="translate(6406.571 4219.557)" fill="none" stroke="#fff" stroke-width="48"><circle cx="1467.429" cy="1467.429" r="1467.429" stroke="none"/><circle cx="1467.429" cy="1467.429" r="1443.429" fill="none"/></g><path d="M17632.174,4304.9c-119.6,112.7-11.5,264.506-126.5,310.506s23,149.5,126.5,310.506,80.5,207,184,184,138,34.5,241.506,115,115,69,172.5,138-34.5,80.5,0,276,92,310.506,241.5,414.008c80.5,195.5,34.5,540.511-57.5,724.515,207-46,506.01-264.505,667.014-552.011,195.5-103.5,287.5-241.5,207-310.506,202.4-181.7,207-230-126.5-391.007-77.373-37.353-49.066-107.336-124.2-161-312.807-161-459.18-277.478-715.314-92-126.5-264.506-149.5-126.5-264.5-207s-126.5,46-241.506-92,46-241.5,184-241.5,207.006,0,230.006,69,108.1,98.9,92,55.2-80.5-128.8-75.9-151.8,25.3-52.9,75.9-87.4,75.9-98.9,98.9-117.3,55.2-34.5,103.5-41.4,82.8-29.9,149.5-46,82.8-18.4,103.5-27.6,50.6,20.7,29.9-18.4-39.1-50.6-82.8-82.8-158.7-57.5-179.4-71.3-66.7-59.8-115-43.7-105.8,34.5-142.605,43.7-52.9,9.2-73.6,0-69-4.6-39.1-25.3,36.8-27.6,55.2-41.4,9.2-9.2,16.1-27.6S17751.775,4192.2,17632.174,4304.9Z" transform="translate(-10516.039 148.107)" fill="#fff"/><path d="M107.541,156.172c-198.57-165.6-115-210.838,191.672-80.5s429.341,207,559.676,199.338,138.006,61.335,291.34,0,161-191.67,253-118.836C1617.9,267.342,977.726,521.88,107.541,156.172Z" transform="matrix(0.999, -0.035, 0.035, 0.999, 7036.723, 6808.508)" fill="#fff"/><path d="M19233.334,4595.2c33.73,73.6,98.135,131.869,92,220.8s24.533,102.735,42.934,115c-6.133,47.534-33.734,76.668,7.668,122.669s26.066,85.868,62.867,131.869c36.8,67.468,44.467,90.469,69,93.535s26.066-4.6,30.666-16.867-30.666-208.537-30.666-208.537l-81.268-207s-67.471-142.6-70.537-147.2-67.465-95.069-73.6-104.269S19233.334,4595.2,19233.334,4595.2Z" transform="translate(-10250.328 219.685)" fill="#fff"/></g><path d="M15.125,22.857,0,38.654H23.234l7.025,13.718L40.527,34.084l16.209,3.53L45.383,19.945,49.711,0,28.368,11.639,8.109,3.736Z" transform="translate(5952.241 4561.377) rotate(95)" fill="#f7f797"/><path d="M26.72,40.38,0,68.287H41.045l12.41,24.235L71.6,60.214l28.635,6.237L80.175,35.236,87.821,0,50.115,20.562,14.325,6.6Z" transform="translate(6053.375 4787.322) rotate(95)" fill="#f7f797"/><path d="M15.125,22.857,0,38.654H23.234l7.025,13.718L40.527,34.084l16.209,3.53L45.383,19.945,49.711,0,28.368,11.639,8.109,3.736Z" transform="translate(5890.129 4890.417) rotate(95)" fill="#f7f797"/><path d="M11.078,16.741,0,28.311H17.017l5.145,10.047,7.521-13.394L41.554,27.55,33.239,14.608,36.409,0,20.777,8.525,5.939,2.737Z" transform="translate(2834.067 2475.703) rotate(95)" fill="#f7f797"/><path d="M9.469,14.31,0,24.2H14.545l4.4,8.588,6.428-11.449,10.147,2.21L28.412,12.487,31.121,0,17.759,7.287,5.077,2.339Z" transform="translate(2711.556 2070.689) rotate(95)" fill="#f7f797"/><path d="M9.469,14.31,0,24.2H14.545l4.4,8.588,6.428-11.449,10.147,2.21L28.412,12.487,31.121,0,17.759,7.287,5.077,2.339Z" transform="translate(2846.125 5427.938) rotate(95)" fill="#f7f797"/><path d="M9.469,14.31,0,24.2H14.545l4.4,8.588,6.428-11.449,10.147,2.21L28.412,12.487,31.121,0,17.759,7.287,5.077,2.339Z" transform="translate(2699.908 5360.01) rotate(95)" fill="#f7f797"/><path d="M19,28.712,0,48.554H29.184l8.824,17.232,12.9-22.972,20.36,4.435-14.26-22.2L62.443,0,35.634,14.62,10.186,4.693Z" transform="translate(2660.205 2336.098) rotate(95)" fill="#f7f797"/><path d="M19,28.712,0,48.554H29.184l8.824,17.232,12.9-22.972,20.36,4.435-14.26-22.2L62.443,0,35.634,14.62,10.186,4.693Z" transform="translate(2796.226 5688.867) rotate(95)" fill="#f7f797"/><path d="M19,28.712,0,48.554H29.184l8.824,17.232,12.9-22.972,20.36,4.435-14.26-22.2L62.443,0,35.634,14.62,10.186,4.693Z" transform="translate(2811.181 5227.525) rotate(95)" fill="#f7f797"/><path d="M19,28.712,0,48.554H29.184l8.824,17.232,12.9-22.972,20.36,4.435-14.26-22.2L62.443,0,35.634,14.62,10.186,4.693Z" transform="translate(5547.026 2398.819) rotate(95)" fill="#f7f797"/><path d="M19.625,29.659,0,50.156H30.147l9.115,17.8L52.585,44.226l21.032,4.581L58.887,25.88,64.5,0,36.809,15.1,10.522,4.848Z" transform="translate(5793.351 2158.29) rotate(95)" fill="#f7f797"/><path d="M29.183,44.1,0,74.584H44.83l13.554,26.469L78.2,65.766l31.275,6.812-21.9-34.093L95.918,0,54.736,22.458,15.646,7.209Z" transform="translate(5905.203 2417.937) rotate(95)" fill="#f7f797"/><path d="M18.23,27.551,0,46.591H28l8.467,16.535L48.848,41.083l19.537,4.255L54.7,24.041,59.918,0,34.192,14.029,9.774,4.5Z" transform="translate(5556.974 2111.862) rotate(95)" fill="#f7f797"/><path d="M19,28.712,0,48.554H29.184l8.824,17.232,12.9-22.972,20.36,4.435-14.26-22.2L62.443,0,35.634,14.62,10.186,4.693Z" transform="translate(6074.919 1923.931) rotate(95)" fill="#f7f797"/><path d="M19,28.712,0,48.554H29.184l8.824,17.232,12.9-22.972,20.36,4.435-14.26-22.2L62.443,0,35.634,14.62,10.186,4.693Z" transform="translate(2526.699 5265.456) rotate(95)" fill="#f7f797"/><path d="M31.629,47.8,0,80.834H48.586l14.69,28.687L84.75,71.278l33.9,7.383L94.906,41.71,103.956,0,59.323,24.34,16.957,7.814Z" transform="translate(2912.032 2241.173) rotate(95)" fill="#f7f797"/><path d="M9.684,14.635,0,24.75H14.876l4.5,8.783,6.575-11.709,10.378,2.26L29.058,12.771,31.829,0,18.163,7.452,5.192,2.392Z" transform="translate(3075.617 2433.641) rotate(95)" fill="#f7f797"/><ellipse cx="149.157" cy="149.157" rx="149.157" ry="149.157" transform="translate(2066.634 2887.736)" fill="#bfbfbf"/><ellipse cx="30.936" cy="30.936" rx="30.936" ry="30.936" transform="translate(2113.038 3063.883)" fill="#ababab"/><ellipse cx="28.174" cy="28.174" rx="28.174" ry="28.174" transform="translate(2583.54 5424.551)" fill="#ababab"/><ellipse cx="15.468" cy="15.468" rx="15.468" ry="15.468" transform="translate(2490.732 5480.295)" fill="#ababab"/><ellipse cx="49.167" cy="49.166" rx="49.167" ry="49.166" transform="translate(2236.782 3027.823)" fill="#ababab"/><text transform="translate(1701 6830.17)" fill="#7971cc" font-size="507" font-family="SegoeUI-Bold, Segoe UI" font-weight="700"><tspan x="1264.736" y="547">Sky Tracker</tspan></text></g></svg>